<svg width="24" height="24" viewBox="0 0 24 24" fill="none" xmlns="http://www.w3.org/2000/svg">
<g clip-path="url(#clip0_1_6)">
<path d="M20.9999 3.99999H17.8999C17.6678 2.8714 17.0537 1.85734 16.1612 1.12871C15.2686 0.400082 14.1521 0.00144689 12.9999 -7.62939e-06L10.9999 -7.62939e-06C9.84771 0.00144689 8.73123 0.400082 7.83867 1.12871C6.9461 1.85734 6.33201 2.8714 6.09992 3.99999H2.99992C2.7347 3.99999 2.48035 4.10535 2.29281 4.29289C2.10527 4.48042 1.99992 4.73478 1.99992 4.99999C1.99992 5.26521 2.10527 5.51956 2.29281 5.7071C2.48035 5.89464 2.7347 5.99999 2.99992 5.99999H3.99992V19C4.0015 20.3256 4.5288 21.5964 5.46614 22.5338C6.40347 23.4711 7.67432 23.9984 8.99992 24H14.9999C16.3255 23.9984 17.5964 23.4711 18.5337 22.5338C19.471 21.5964 19.9983 20.3256 19.9999 19V5.99999H20.9999C21.2651 5.99999 21.5195 5.89464 21.707 5.7071C21.8946 5.51956 21.9999 5.26521 21.9999 4.99999C21.9999 4.73478 21.8946 4.48042 21.707 4.29289C21.5195 4.10535 21.2651 3.99999 20.9999 3.99999V3.99999ZM10.9999 1.99999H12.9999C13.6202 2.00075 14.225 2.19337 14.7315 2.55144C15.238 2.9095 15.6213 3.41548 15.8289 3.99999H8.17092C8.3785 3.41548 8.76182 2.9095 9.2683 2.55144C9.77479 2.19337 10.3796 2.00075 10.9999 1.99999V1.99999ZM17.9999 19C17.9999 19.7956 17.6838 20.5587 17.1212 21.1213C16.5586 21.6839 15.7956 22 14.9999 22H8.99992C8.20427 22 7.4412 21.6839 6.8786 21.1213C6.31599 20.5587 5.99992 19.7956 5.99992 19V5.99999H17.9999V19Z" fill="#686868"/>
<path d="M10 17.9994C10.2652 17.9994 10.5196 17.894 10.7071 17.7065C10.8946 17.5189 11 17.2646 11 16.9994V10.9994C11 10.7342 10.8946 10.4798 10.7071 10.2923C10.5196 10.1047 10.2652 9.99937 10 9.99937C9.73478 9.99937 9.48043 10.1047 9.29289 10.2923C9.10536 10.4798 9 10.7342 9 10.9994V16.9994C9 17.2646 9.10536 17.5189 9.29289 17.7065C9.48043 17.894 9.73478 17.9994 10 17.9994Z" fill="#686868"/>
<path d="M13.9999 17.9994C14.2651 17.9994 14.5194 17.894 14.707 17.7065C14.8945 17.5189 14.9999 17.2646 14.9999 16.9994V10.9994C14.9999 10.7342 14.8945 10.4798 14.707 10.2923C14.5194 10.1047 14.2651 9.99937 13.9999 9.99937C13.7346 9.99937 13.4803 10.1047 13.2928 10.2923C13.1052 10.4798 12.9999 10.7342 12.9999 10.9994V16.9994C12.9999 17.2646 13.1052 17.5189 13.2928 17.7065C13.4803 17.894 13.7346 17.9994 13.9999 17.9994Z" fill="#686868"/>
</g>
<defs>
<clipPath id="clip0_1_6">
<rect width="24" height="24" fill="white"/>
</clipPath>
</defs>
</svg>
