<svg width="20" height="24" viewBox="0 0 20 24" fill="none" xmlns="http://www.w3.org/2000/svg">
<path d="M19 4H15.9C15.6679 2.87141 15.0538 1.85735 14.1613 1.12872C13.2687 0.40009 12.1522 0.00145452 11 0H8.99998C7.84779 0.00145452 6.73131 0.40009 5.83875 1.12872C4.94618 1.85735 4.33209 2.87141 4.1 4H1C0.73478 4 0.48043 4.10536 0.29289 4.2929C0.10535 4.48043 0 4.73479 0 5C0 5.26522 0.10535 5.51957 0.29289 5.70711C0.48043 5.89465 0.73478 6 1 6H2V19C2.00158 20.3256 2.52888 21.5964 3.46622 22.5338C4.40355 23.4711 5.6744 23.9984 7 24H13C14.3256 23.9984 15.5965 23.4711 16.5338 22.5338C17.4711 21.5964 17.9984 20.3256 18 19V6H19C19.2652 6 19.5196 5.89465 19.7071 5.70711C19.8947 5.51957 20 5.26522 20 5C20 4.73479 19.8947 4.48043 19.7071 4.2929C19.5196 4.10536 19.2652 4 19 4ZM8.99998 2H11C11.6203 2.00076 12.2251 2.19338 12.7316 2.55145C13.2381 2.90951 13.6214 3.41549 13.829 4H6.171C6.37858 3.41549 6.7619 2.90951 7.26838 2.55145C7.77487 2.19338 8.37968 2.00076 8.99998 2ZM16 19C16 19.7956 15.6839 20.5587 15.1213 21.1213C14.5587 21.6839 13.7957 22 13 22H7C6.20435 22 5.44128 21.6839 4.87868 21.1213C4.31607 20.5587 4 19.7956 4 19V6H16V19Z" fill="currentColor"/>
<path d="M8.00009 17.9994C8.26529 17.9994 8.51969 17.894 8.70719 17.7065C8.89469 17.5189 9.00009 17.2646 9.00009 16.9994V10.9994C9.00009 10.7342 8.89469 10.4798 8.70719 10.2923C8.51969 10.1047 8.26529 9.99939 8.00009 9.99939C7.73487 9.99939 7.48052 10.1047 7.29298 10.2923C7.10545 10.4798 7.00009 10.7342 7.00009 10.9994V16.9994C7.00009 17.2646 7.10545 17.5189 7.29298 17.7065C7.48052 17.894 7.73487 17.9994 8.00009 17.9994Z" fill="currentColor"/>
<path d="M12 17.9994C12.2652 17.9994 12.5195 17.894 12.7071 17.7065C12.8946 17.5189 13 17.2646 13 16.9994V10.9994C13 10.7342 12.8946 10.4798 12.7071 10.2923C12.5195 10.1047 12.2652 9.99939 12 9.99939C11.7347 9.99939 11.4804 10.1047 11.2929 10.2923C11.1053 10.4798 11 10.7342 11 10.9994V16.9994C11 17.2646 11.1053 17.5189 11.2929 17.7065C11.4804 17.894 11.7347 17.9994 12 17.9994Z" fill="currentColor"/>
</svg>
