<svg width="24" height="24" viewBox="0 0 24 24" fill="none" xmlns="http://www.w3.org/2000/svg">
<g clip-path="url(#clip0_1_2)">
<path d="M22.8532 1.148C22.1733 0.469198 21.2519 0.0879383 20.2912 0.0879383C19.3304 0.0879383 18.409 0.469198 17.7292 1.148L1.46515 17.412C0.999405 17.8751 0.630116 18.426 0.378651 19.0328C0.127187 19.6396 -0.00145969 20.2902 0.000153264 20.947V23C0.000153264 23.2652 0.10551 23.5196 0.293047 23.7071C0.480583 23.8946 0.734937 24 1.00015 24H3.05315C3.70992 24.0019 4.36052 23.8734 4.96731 23.6221C5.5741 23.3708 6.12501 23.0017 6.58815 22.536L22.8532 6.271C23.5317 5.5912 23.9127 4.66997 23.9127 3.7095C23.9127 2.74904 23.5317 1.82781 22.8532 1.148V1.148ZM5.17415 21.122C4.61016 21.6823 3.84812 21.9977 3.05315 22H2.00015V20.947C1.99914 20.5529 2.07631 20.1625 2.22719 19.7985C2.37807 19.4344 2.59967 19.1039 2.87915 18.826L15.2222 6.483L17.5222 8.783L5.17415 21.122ZM21.4382 4.857L18.9322 7.364L16.6322 5.069L19.1392 2.562C19.2902 2.41131 19.4694 2.29184 19.6666 2.21041C19.8638 2.12898 20.0751 2.08719 20.2884 2.08742C20.5018 2.08766 20.713 2.12991 20.91 2.21176C21.107 2.29362 21.286 2.41348 21.4367 2.5645C21.5873 2.71552 21.7068 2.89474 21.7882 3.09194C21.8697 3.28913 21.9115 3.50043 21.9112 3.71377C21.911 3.92711 21.8687 4.13832 21.7869 4.33533C21.705 4.53235 21.5852 4.71131 21.4342 4.862L21.4382 4.857Z" fill="#686868"/>
</g>
<defs>
<clipPath id="clip0_1_2">
<rect width="24" height="24" fill="white"/>
</clipPath>
</defs>
</svg>
